<svg width="25" height="25" viewBox="0 0 25 25" xmlns="http://www.w3.org/2000/svg" xmlns:xlink="http://www.w3.org/1999/xlink" overflow="visible"><style>
.MsftOfcThm_Background1_lumMod_65_Fill_v2 {
 fill:#A6A6A6; 
}
</style>
<defs></defs><path d="M25 15 20 15 20 10 25 10 25 15ZM20 15 15 15 15 20 20 20 20 15ZM15 20 10 20 10 25 15 25 15 20ZM20 5 15 5 15 10 20 10 20 5ZM15 0 10 0 10 5 15 5 15 0ZM15 10 10 10 10 15 15 15 15 10ZM10 15 5 15 5 20 10 20 10 15ZM5 20 0 20 0 25 5 25 5 20ZM10 5 5 5 5 10 10 10 10 5ZM5 0 0 0 0 5 5 5 5 0Z" id="Arrow_1_" class="MsftOfcThm_Background1_lumMod_65_Fill_v2" fill="#A6A6A6"/></svg>